<?xml version="1.0" encoding="UTF-8"?> <svg xmlns="http://www.w3.org/2000/svg" xmlns:xlink="http://www.w3.org/1999/xlink" width="205px" height="42px" viewBox="0 0 205 42"><!-- Generator: Sketch 51 (57462) - http://www.bohemiancoding.com/sketch --><title>Logo/Echo/Light</title><desc>Created with Sketch.</desc><defs></defs><g id="Logo/Echo/Light" stroke="none" stroke-width="1" fill="none" fill-rule="evenodd"><path d="M88.9974998,0 L205,0 L205,42 L88.9974998,42 L88.9974998,27.4503918 L82,20.4393319 L88.9974998,13.4289492 L88.9974998,0 Z M116.977989,29.1133333 L102.28994,29.1133333 L102.28994,21.2873333 L113.194909,21.2873333 L113.194909,18.5573333 L102.28994,18.5573333 L102.28994,11.5686667 L116.644447,11.5686667 L116.644447,8.87466667 L99.1005783,8.87466667 L99.1005783,31.8066667 L116.977989,31.8066667 L116.977989,29.1133333 Z M139.232196,23.7626667 C138.379661,27.4026667 135.968789,29.514 131.739402,29.514 C126.992382,29.514 123.505482,25.9826667 123.505482,20.3406667 C123.505482,14.6986667 126.955699,11.168 131.851489,11.168 C135.634568,11.168 138.04544,13.2066667 139.010061,16.228 L141.717792,14.4806667 C140.196816,10.768 136.783961,8.438 131.851489,8.438 C125.249271,8.438 120.130668,13.2793333 120.130668,20.3406667 C120.130668,27.4026667 125.249271,32.244 131.739402,32.244 C137.229589,32.244 140.790533,29.514 142.125378,25.2913333 L139.232196,23.7626667 Z M150.173847,31.8066667 L150.173847,21.2873333 L164.490313,21.2873333 L164.490313,31.8066667 L167.754399,31.8066667 L167.754399,8.87466667 L164.490313,8.87466667 L164.490313,18.5573333 L150.173847,18.5573333 L150.173847,8.87466667 L146.909761,8.87466667 L146.909761,31.8066667 L150.173847,31.8066667 Z M196.536778,20.3406667 C196.536778,13.2793333 191.49154,8.438 184.667868,8.438 C177.87952,8.438 172.83564,13.2793333 172.83564,20.3406667 C172.83564,27.4026667 177.87952,32.244 184.667868,32.244 C191.49154,32.244 196.536778,27.4026667 196.536778,20.3406667 Z M193.160606,20.3406667 C193.160606,25.9466667 189.711068,29.4773333 184.667868,29.4773333 C179.623309,29.4773333 176.210454,25.9466667 176.210454,20.3406667 C176.210454,14.7353333 179.623309,11.2046667 184.667868,11.2046667 C189.711068,11.2046667 193.160606,14.7353333 193.160606,20.3406667 Z" id="Combined-Shape" fill="#FFA838"></path><path d="M79.3823728,11.5778 C77.2140141,9.01846667 73.8521072,7.4338 69.3340141,7.4338 C61.6116141,7.4338 55.576621,12.9424667 55.576621,20.9764667 C55.576621,29.0111333 61.6116141,34.5191333 69.2918969,34.5191333 C74.0470693,34.5191333 77.4898141,32.8118 79.6316797,30.0578 L75.4152003,25.8924667 C73.9200383,27.8298 72.3263762,29.0111333 69.2491003,29.0111333 C65.0292245,29.0111333 62.2019348,25.8631333 62.2019348,20.9764667 C62.2019348,16.0898 64.9871072,12.9424667 69.2918969,12.9424667 C72.1259797,12.9424667 74.1591555,14.0944667 75.3547417,15.5031333 L79.3823728,11.5778 Z M43.2124934,13.4804667 L53.4666831,13.4804667 L53.4666831,7.93113333 L26.6692486,7.93113333 L26.6692486,13.4804667 L36.7977659,13.4804667 L36.7977659,34.0218 L43.2124934,34.0218 L43.2124934,13.4804667 Z M17.1752072,20.4798 C20.5513797,20.1071333 23.1674038,17.9944667 23.1674038,15.0958 C23.1674038,10.7471333 20.1716452,7.93113333 13.418621,7.93113333 L0.000203793103,7.93113333 L0.000203793103,34.0218 L14.2215659,34.0218 C20.4250279,34.0218 23.9696693,31.3711333 23.9696693,26.8571333 C23.9696693,23.1298 20.7626452,20.9764667 17.1752072,20.4798 Z M16.710559,15.8411333 C16.710559,17.3738 15.6141521,18.6158 12.8710969,18.6158 L6.2457831,18.6158 L6.2457831,12.9424667 L12.8710969,12.9424667 C15.6141521,12.9424667 16.710559,14.2258 16.710559,15.8411333 Z M17.5542624,26.0291333 C17.5542624,27.7684667 16.2472693,28.9691333 13.418621,28.9691333 L6.2457831,28.9691333 L6.2457831,23.0884667 L13.418621,23.0884667 C16.2472693,23.0884667 17.5542624,24.3311333 17.5542624,26.0291333 Z" id="Fill-4" fill="#FFA838"></path></g></svg> 