<svg xmlns="http://www.w3.org/2000/svg" xmlns:xlink="http://www.w3.org/1999/xlink" width="141" height="36" viewBox="0 0 141 36">
    <defs>
        <path id="a" d="M0 .201h9.104V13.81H0z"/>
        <path id="c" d="M.155.201h3.57V13.81H.155z"/>
        <path id="e" d="M.167.201h2.3V13.81h-2.3z"/>
        <path id="g" d="M.08.201h2.3V13.81H.08z"/>
    </defs>
    <g fill="none" fill-rule="evenodd">
        <circle cx="18" cy="18" r="18" fill="#24B2FA" fill-rule="nonzero"/>
        <path fill="#FFF" fill-rule="nonzero" d="M22.294 15.259h9.332c.132 0 .255.034.362.095a.738.738 0 0 1 .468.586 14.599 14.599 0 0 1-5.471 13.562c-6.357 4.967-15.537 3.84-20.503-2.517-4.967-6.357-3.84-15.537 2.517-20.503 6.357-4.967 15.537-3.84 20.503 2.517a.738.738 0 0 1-1.163.909C23.875 4.193 15.622 3.18 9.908 7.644 4.193 12.11 3.18 20.361 7.644 26.076c4.465 5.715 12.717 6.728 18.432 2.263a13.104 13.104 0 0 0 4.653-7.148c-.897.997-2.16 1.514-3.776 1.514-3.251 0-5.064-2.088-5.36-5.97h-1.366c-.305 3.883-2.122 5.97-5.373 5.97-3.445 0-5.275-2.345-5.396-6.688a.738.738 0 0 1 .738-.758h12.098zm-11.32 1.475c.252 3.09 1.52 4.495 3.88 4.495s3.633-1.406 3.894-4.495h-7.774zm15.979 4.495c2.36 0 3.633-1.406 3.893-4.495h-7.774c.252 3.09 1.521 4.495 3.88 4.495z"/>
        <g transform="translate(45.443 10.758)">
            <mask id="b" fill="#fff">
                <use xlink:href="#a"/>
            </mask>
            <path fill="#000" d="M2.394 8.21v2.771h-.001v.887h1.179c1.065 0 1.84-.182 2.321-.543.48-.361.723-.961.723-1.8 0-.766-.223-1.326-.672-1.674-.445-.348-1.224-.524-2.334-.525v-.002H2.393v.887zm0-5.125V4.63h-.001v.887H3.556c1.561 0 2.344-.587 2.344-1.759 0-1.04-.71-1.558-2.13-1.558H2.393v.886zm1.73 10.725H0V.2h3.823c1.401 0 2.498.299 3.286.899.788.6 1.184 1.457 1.184 2.57 0 1.067-.565 1.912-1.696 2.535 1.671.58 2.507 1.784 2.507 3.606 0 1.225-.462 2.199-1.389 2.918-.926.72-2.123 1.08-3.59 1.08z" mask="url(#b)"/>
        </g>
        <g transform="translate(56.547 10.758)">
            <mask id="d" fill="#fff">
                <use xlink:href="#c"/>
            </mask>
            <path fill="#000" d="M2.454.201v10.047c.015 1.446.477 2.06 1.271 3.562h-2.52c-.862-1.144-1.05-2.288-1.05-3.4V.201h2.3z" mask="url(#d)"/>
        </g>
        <path fill="#000" d="M63.842 19.617c0 2.171.782 3.255 2.344 3.255.716 0 1.281-.283 1.702-.845.418-.566.628-1.37.628-2.41 0-2.139-.775-3.21-2.33-3.21-.72 0-1.289.282-1.71.845-.423.565-.634 1.354-.634 2.365m-2.394 0c0-1.504.434-2.73 1.3-3.675.868-.946 2.015-1.42 3.438-1.42 1.495 0 2.654.455 3.483 1.364.826.907 1.241 2.151 1.241 3.731 0 1.571-.42 2.822-1.263 3.748-.845.927-1.998 1.392-3.461 1.392-1.499 0-2.661-.468-3.49-1.405-.833-.936-1.248-2.183-1.248-3.735M80.93 15.483l-.982 1.716c-.54-.503-1.264-.754-2.171-.754-.87 0-1.559.288-2.064.87-.506.58-.757 1.385-.757 2.412 0 2.07.983 3.107 2.953 3.107a3.33 3.33 0 0 0 2.252-.848l.845 1.81c-.67.417-1.253.684-1.753.794-.5.11-1.09.167-1.768.167-1.524 0-2.724-.443-3.604-1.332-.88-.886-1.32-2.12-1.32-3.698 0-1.555.481-2.811 1.446-3.77.961-.958 2.274-1.435 3.936-1.435 1.146 0 2.142.32 2.987.961"/>
        <g transform="translate(82.457 10.758)">
            <mask id="f" fill="#fff">
                <use xlink:href="#e"/>
            </mask>
            <path fill="#000" d="M2.466 10.514V13.81H.167V.2h2.3v7.543z" mask="url(#f)"/>
        </g>
        <path fill="#000" d="M88.957 24.568l-4.033-5.11 3.326-4.738h2.553l-3.224 4.566 4.24 5.282z"/>
        <path fill="#24B2FA" d="M110.277 20.346h-4.92c.045.785.315 1.398.811 1.835.496.436 1.166.653 2.008.653 1.052 0 1.85-.27 2.396-.81l.893 1.753c-.811.653-2.017.98-3.626.98-1.501 0-2.688-.44-3.565-1.323-.874-.88-1.31-2.11-1.31-3.688 0-1.555.48-2.814 1.438-3.779.962-.965 2.112-1.445 3.456-1.445 1.43 0 2.576.427 3.44 1.282.763.754 1.19 1.69 1.28 2.808h-2.301c-.16-1.445-.955-2.167-2.384-2.167-1.31 0-2.124.722-2.441 2.167h4.825v1.734zM134.1 23.937l.817-1.838c.688.553 1.463.83 2.328.83.895 0 1.34-.321 1.34-.959 0-.377-.134-.685-.404-.923-.27-.239-.792-.525-1.571-.849-1.7-.706-2.548-1.696-2.548-2.968 0-.855.324-1.517.974-1.995.65-.474 1.48-.713 2.491-.713 1.024 0 1.986.23 2.887.688l-.66 1.781c-.502-.427-1.2-.64-2.095-.64-.801 0-1.203.32-1.203.957 0 .255.132.481.396.685.264.201.826.474 1.69.817.867.34 1.49.754 1.869 1.238.38.487.569 1.074.569 1.759 0 .917-.34 1.637-1.018 2.161-.676.525-1.596.789-2.761.789-.657 0-1.185-.054-1.577-.16-.396-.11-.905-.33-1.524-.66M120.886 20.346h-4.92c.045.785.315 1.398.811 1.835.496.436 1.166.653 2.007.653 1.053 0 1.85-.27 2.397-.81l.893 1.753c-.811.653-2.017.98-3.626.98-1.501 0-2.689-.44-3.565-1.323-.874-.88-1.31-2.11-1.31-3.688 0-1.555.48-2.814 1.438-3.779.962-.965 2.112-1.445 3.456-1.445 1.43 0 2.576.427 3.44 1.282.763.754 1.19 1.69 1.28 2.808h-2.3c-.161-1.445-.956-2.167-2.385-2.167-1.31 0-2.124.722-2.441 2.167h4.825v1.734z"/>
        <g transform="translate(124.52 10.758)">
            <mask id="h" fill="#fff">
                <use xlink:href="#g"/>
            </mask>
            <path fill="#24B2FA" d="M2.38 10.514V13.81H.08V.2h2.3v7.543z" mask="url(#h)"/>
        </g>
        <path fill="#24B2FA" d="M130.933 24.568l-4.034-5.11 3.326-4.738h2.553l-3.224 4.566 4.24 5.282zM98.724 24.56c-1.14.304-2.848.27-3.953-.143a4.234 4.234 0 0 1-1.54-.992c-.88-.886-1.32-2.12-1.32-3.698 0-1.555.48-2.811 1.446-3.77 2.098-2.092 5.858-1.873 7.754.393v7.396c0 1.004.043 1.926-.308 2.91-.948 2.662-3.882 3.317-6.384 2.766-.5-.11-1.083-.377-1.753-.795l.846-1.809c.65.565 1.4.848 2.252.848 2.16 0 2.945-1.121 2.96-3.105m-4.419-4.834c0 1.182.321 2.027.96 2.534.882.698 2.571.804 3.46.288V16.96c-.418-.382-.99-.55-1.571-.545-1.934.017-2.849 1.52-2.849 3.311"/>
    </g>
</svg>
