<svg xmlns="http://www.w3.org/2000/svg" width="24" height="24" viewBox="0 0 24 24">
    <g fill="none" fill-rule="evenodd">
        <path fill="#24B2FA" d="M11.667 0c6.443 0 11.666 5.223 11.666 11.667 0 6.443-5.223 11.666-11.666 11.666C5.223 23.333 0 18.11 0 11.667 0 5.223 5.223 0 11.667 0z"/>
        <path fill="#FFF" fill-rule="nonzero" d="M9.667 17.526c0 .297-.16.474-.384.474a.59.59 0 0 1-.262-.069l-3.633-1.84A.782.782 0 0 1 5 15.456V6.438c0-.239.126-.38.307-.38.064 0 .136.018.21.055l.128.065L9.65 8.206l.017.015v9.305zm4.195-10.898l.245-.403a.481.481 0 0 1 .614-.177l4.223 2.138.001.002h.004c.003.002.003.006.005.007.021.017.03.046.016.07l-4.206 6.921-.43.706-2.786-5.457 2.314-3.807zm-3.529 7.24V9.521l2.994 5.864-2.693-1.363-.3-.154zM19 17.526c0 .279-.165.438-.409.438a.824.824 0 0 1-.366-.098l-.603-.306-2.692-1.363L19 9.499v8.027z"/>
    </g>
</svg>
