<?xml version="1.0" encoding="UTF-8"?>
<svg width="18px" height="14px" viewBox="0 0 18 14" version="1.1" xmlns="http://www.w3.org/2000/svg" xmlns:xlink="http://www.w3.org/1999/xlink">
    <!-- Generator: Sketch 52.5 (67469) - http://www.bohemiancoding.com/sketch -->
    <title>Group</title>
    <desc>Created with Sketch.</desc>
    <g id="Guides/Articles" stroke="none" stroke-width="1" fill="none" fill-rule="evenodd">
        <g id="Group" transform="translate(1.000000, 1.000000)">
            <path d="M15.5934426,1.7442623 C15.4098361,1.06229508 14.8721311,0.524590164 14.1901639,0.340983607 C12.9442623,0 7.96065574,0 7.96065574,0 C7.96065574,0 2.97704918,0 1.73114754,0.327868852 C1.06229508,0.51147541 0.51147541,1.06229508 0.327868852,1.7442623 C0,2.99016393 0,5.57377049 0,5.57377049 C0,5.57377049 0,8.1704918 0.327868852,9.40327869 C0.51147541,10.0852459 1.04918033,10.6229508 1.73114754,10.8065574 C2.99016393,11.147541 7.96065574,11.147541 7.96065574,11.147541 C7.96065574,11.147541 12.9442623,11.147541 14.1901639,10.8196721 C14.8721311,10.6360656 15.4098361,10.0983607 15.5934426,9.41639344 C15.9213115,8.1704918 15.9213115,5.58688525 15.9213115,5.58688525 C15.9213115,5.58688525 15.9344262,2.99016393 15.5934426,1.7442623 Z" id="Path" stroke="#BEC3C7" stroke-width="2"></path>
            <polygon id="Path" fill="#BEC3C7" points="6.37377049 7.96065574 10.5180328 5.57377049 6.37377049 3.18688525"></polygon>
        </g>
    </g>
</svg>