<svg xmlns="http://www.w3.org/2000/svg" width="24" height="24" viewBox="0 0 24 24">
    <g fill="none" fill-rule="evenodd">
        <path fill="#24B2FA" d="M11.667 0c6.443 0 11.666 5.223 11.666 11.667 0 6.443-5.223 11.666-11.666 11.666C5.223 23.333 0 18.11 0 11.667 0 5.223 5.223 0 11.667 0z"/>
        <path fill="#FFF" fill-rule="nonzero" d="M16.17 6.105c-2.053-.14-6.624-.14-8.673 0-2.22.151-2.48 1.492-2.497 5.02.017 3.522.276 4.868 2.497 5.02 2.05.14 6.62.14 8.673 0 2.219-.151 2.48-1.492 2.497-5.02-.017-3.522-.276-4.868-2.497-5.02zm-6.045 7.298V8.847l4.556 2.274-4.556 2.282z"/>
    </g>
</svg>
