<svg xmlns="http://www.w3.org/2000/svg" viewBox="0 0 310.03777 51.000299" height="100%" width="100%"><g opacity=".985"><g style="line-height:107.00000525%" font-size="22.17" font-family="Myriad Pro" letter-spacing="0" word-spacing="0" fill="#002143" font-stretch="semi-condensed"><path style="line-height:107.00000525%;-inkscape-font-specification:'Myriad Pro, Semi-Condensed';text-align:start" d="M15.727 13.485h-5.204v1.743h3.102v5.307c-.41.205-1.205.384-2.436.384-3.46 0-5.9-2.34-5.9-7 0-4.64 2.61-7 6.2-7 1.48 0 2.48.28 3.28.64l.51-1.8c-.69-.31-2.05-.7-3.77-.7-4.98 0-8.46 3.33-8.49 8.97 0 2.84.89 5.15 2.3 6.56 1.51 1.51 3.46 2.1 5.74 2.1 1.94 0 3.71-.49 4.64-.85v-8.38zm11.227 3.692l1.64 5.357h2.256L25.57 5.257h-2.538l-5.306 17.277h2.204l1.59-5.357h5.434zm-5.024-1.692l1.46-4.82c.308-1.076.565-2.255.796-3.358h.076c.23 1.077.487 2.23.82 3.384l1.488 4.8h-4.64zm11.32 6.998c.692.077 1.743.18 3.204.18 2.59 0 4.41-.488 5.537-1.616.88-.82 1.41-1.974 1.41-3.435 0-2.486-1.69-3.896-3.46-4.332v-.077c1.77-.64 2.85-2.102 2.85-3.794 0-1.34-.51-2.36-1.36-3.05-1.02-.88-2.41-1.24-4.46-1.24-1.41 0-2.77.15-3.71.36v17zm2.153-15.535c.333-.076.846-.153 1.717-.153 2.205 0 3.487.948 3.487 2.82 0 1.717-1.385 2.973-3.512 2.973h-1.692v-5.64zm0 7.255h1.564c2.255 0 4.178 1.025 4.178 3.384 0 2.435-1.897 3.383-4.127 3.383-.692 0-1.23-.025-1.615-.102v-6.665zm10.764 8.33h8.767v-1.82H48.32V5.258h-2.153v17.277zm19.24-9.92h-5.972V7.078h6.357v-1.82h-8.51v17.277h8.87v-1.82h-6.717V14.41h5.973v-1.795zm3.39 9.92h2.153v-7.51h1.718c1.922.05 2.794.95 3.28 3.333.437 2.153.796 3.665 1.078 4.178h2.204c-.333-.64-.718-2.23-1.23-4.64-.41-1.948-1.154-3.178-2.46-3.614v-.05c1.793-.694 3.1-2.18 3.1-4.436 0-1.333-.46-2.512-1.307-3.307-1-.923-2.486-1.36-4.665-1.36-1.384 0-2.82.13-3.87.36v17.047zM70.95 7c.334-.103.974-.18 1.872-.18 2.28 0 3.665 1.05 3.665 3.23 0 2-1.435 3.333-3.69 3.333H70.95V7zm19.64 15.534l2.23-8.792c.564-2.154.95-3.897 1.205-5.69h.05c.232 1.793.59 3.562 1.078 5.664l2.025 8.818h2.205l4.434-17.277h-2.18l-2.024 8.56c-.487 2.103-.897 4-1.23 6.077h-.077c-.256-2-.692-4.025-1.154-6.076l-1.948-8.56h-2.127l-2.102 8.586c-.513 2.205-1.026 4.23-1.282 6.075h-.077c-.282-1.8-.666-3.9-1.128-6.05L86.59 5.25h-2.255l4.05 17.277h2.205zm15.307-17.277v17.277h2.153V5.257h-2.153zm5.807 17.277h2.154v-7.51h1.717c1.923.05 2.794.948 3.28 3.332.437 2.153.796 3.665 1.078 4.178h2.204c-.333-.64-.717-2.23-1.23-4.64-.41-1.948-1.154-3.178-2.46-3.614v-.05c1.793-.694 3.1-2.18 3.1-4.436 0-1.333-.46-2.512-1.307-3.307-1-.923-2.486-1.36-4.665-1.36-1.384 0-2.82.13-3.87.36v17.047zM113.858 7c.333-.103.974-.18 1.87-.18 2.282 0 3.667 1.05 3.667 3.23 0 2-1.436 3.333-3.692 3.333h-1.845V7zm13.586 15.534h2.153V7.102h4.64V5.257h-11.433v1.845h4.64v15.432zm7.646-.77c.795.54 2.436 1 3.948 1 3.717 0 5.69-2.18 5.69-4.92 0-2.36-1.306-3.82-3.972-5.077-2.18-.974-3.18-1.743-3.18-3.383 0-1.18.873-2.538 3.052-2.538 1.358 0 2.384.436 2.896.743l.564-1.8c-.64-.39-1.82-.77-3.383-.77-3.18 0-5.28 1.97-5.28 4.64 0 2.36 1.768 3.89 4.177 4.87 2.025.92 2.974 1.87 2.974 3.46 0 1.77-1.256 2.95-3.41 2.95-1.333 0-2.665-.44-3.537-1l-.54 1.82zm22.74-1.46c-.742.36-1.896.615-3.1.615-3.564 0-5.845-2.41-5.845-6.98 0-4.75 2.538-7.1 5.922-7.1 1.28 0 2.23.25 2.947.61l.513-1.77c-.513-.28-1.692-.67-3.512-.67-4.563 0-8.126 3.2-8.126 9.05 0 5.71 3.25 8.69 7.69 8.69 1.79 0 3.2-.34 3.92-.72l-.41-1.74zm2.99-15.047v17.277h2.153v-8.1h7.306v8.1h2.15V5.257h-2.16v7.28h-7.31v-7.28h-2.16zm23.294 11.92l1.64 5.357h2.256l-5.28-17.277h-2.538l-5.307 17.277h2.205l1.59-5.357h5.434zm-5.025-1.692l1.46-4.82c.3-1.076.56-2.255.79-3.358h.07c.23 1.077.48 2.23.82 3.384l1.48 4.8h-4.64zm11.32 7.05h2.15v-7.82h5.87V12.92h-5.87V7.078h6.33v-1.82h-8.49v17.277zm14.28 0h2.15V7.1h4.64V5.257h-11.43v1.845h4.64v15.432zm7.64-.77c.79.538 2.43 1 3.94 1 3.72 0 5.69-2.18 5.69-4.922 0-2.358-1.31-3.82-3.98-5.076-2.18-.974-3.18-1.743-3.18-3.383 0-1.18.87-2.538 3.05-2.538 1.36 0 2.38.436 2.89.743l.562-1.8c-.64-.39-1.82-.77-3.38-.77-3.18 0-5.28 1.97-5.28 4.64 0 2.36 1.77 3.89 4.177 4.87 2.026.92 2.975 1.87 2.975 3.46 0 1.77-1.257 2.95-3.41 2.95-1.33 0-2.666-.44-3.538-1l-.54 1.82zm12.46.77h8.77v-1.82h-6.62V5.255h-2.15v17.278zm19.24-9.92h-5.98v-5.54h6.35v-1.82h-8.51v17.278h8.87v-1.82h-6.72v-6.306h5.97v-1.794zm14.28 9.92l-4.85-8.87 4.69-8.408h-2.41L253.7 9.28c-.535 1.03-.92 1.82-1.38 2.9h-.05c-.46-1-.897-1.87-1.435-2.87l-2.078-4.05h-2.41l4.59 8.51-4.77 8.77h2.41l1.896-3.89c.717-1.332 1.153-2.255 1.615-3.306h.053c.52 1.05.98 1.975 1.72 3.28l2.03 3.92h2.44zm2.38-17.278v17.277h2.15V5.257h-2.15zm5.8 17.277h2.15V15.92l1.46-1.82 5.02 8.434h2.482l-6.026-9.92 5.64-7.357h-2.59L270 11.64c-.41.59-.842 1.23-1.28 1.922h-.075V5.257h-2.15v17.277zm18.39.256c3.89 0 7.07-2.973 7.07-9.048 0-5.255-2.66-8.742-6.84-8.742-4.15 0-7.12 3.46-7.12 8.998 0 5.383 2.79 8.792 6.87 8.792h.02zm.07-1.794c-3.13 0-4.72-3.486-4.72-7.05 0-3.588 1.46-7.15 4.74-7.15 3.28 0 4.713 3.664 4.713 7.022 0 3.77-1.565 7.178-4.718 7.178h-.027zm11.72 1.538v-6.972c0-3.102-.03-5.204-.18-7.434l.073-.026c.8 1.974 1.82 3.922 2.87 5.82l4.85 8.612h2.13V5.257h-2v6.92c0 2.77.05 4.923.23 7.332l-.05.02c-.74-1.8-1.72-3.77-2.82-5.74l-4.82-8.54h-2.28v17.28h2z" font-size="25.634"/><path style="line-height:107.00000525%;-inkscape-font-specification:'Myriad Pro, Semi-Condensed';text-align:start" d="M3.223 42.982c.58.06 1.265.107 2.073.107 1.752 0 3.155-.48 4.04-1.38.868-.89 1.4-2.21 1.4-4.1 0-1.8-.548-3.04-1.432-3.83-.792-.73-1.98-1.13-3.643-1.13-.89 0-1.73.07-2.43.21v10.11zm1.28-9.19c.29-.062.716-.107 1.25-.107 2.454 0 3.658 1.493 3.643 3.978 0 2.987-1.448 4.374-3.826 4.374-.38 0-.777 0-1.067-.045v-8.2zm13 4.603c0-1.54-.58-2.912-2.59-2.912-.87 0-1.694.26-2.21.595l.29.884c.455-.32 1.08-.503 1.705-.503 1.326-.02 1.524.97 1.524 1.69v.18c-2.5-.02-4.04.91-4.04 2.71 0 1.13.763 2.12 2.09 2.12.944 0 1.645-.47 2.026-1.04h.046l.107.88h1.16c-.09-.51-.1-1.13-.1-1.74v-2.88zm-1.25 2.18c0 .136-.016.29-.06.426-.185.66-.748 1.19-1.587 1.19-.594 0-1.143-.38-1.143-1.28 0-1.48 1.585-1.69 2.79-1.67v1.34zm3.162 2.087c.457.29 1.16.488 1.89.488 1.585 0 2.59-.854 2.59-2.21 0-1.082-.67-1.738-1.812-2.225-.884-.412-1.25-.686-1.25-1.265 0-.534.396-.99 1.143-.99.594 0 1.067.212 1.356.395l.32-.945c-.38-.23-.96-.427-1.66-.427-1.45 0-2.394.93-2.394 2.12 0 .883.595 1.584 1.814 2.102.914.412 1.25.762 1.25 1.372 0 .64-.442 1.098-1.326 1.098-.61 0-1.25-.26-1.6-.488l-.32.975zm12.238.35l1.326-5.227c.33-1.28.56-2.317.71-3.384h.03c.13 1.07.35 2.12.64 3.37l1.2 5.25h1.31l2.64-10.27h-1.29l-1.21 5.09c-.29 1.25-.54 2.38-.73 3.62h-.05c-.15-1.19-.41-2.39-.69-3.61l-1.15-5.1h-1.26l-1.25 5.11c-.31 1.31-.61 2.52-.76 3.62h-.05c-.17-1.07-.4-2.32-.67-3.6l-1.13-5.12h-1.34l2.41 10.27h1.31zm10.437 0v-7.376h-1.28v7.377h1.28zm-.654-8.596c.488 0 .793-.35.793-.807 0-.48-.33-.83-.8-.83-.46 0-.8.35-.8.82 0 .45.32.8.78.8h.01zm2.59 8.246c.458.29 1.16.488 1.89.488 1.586 0 2.59-.854 2.59-2.21 0-1.082-.67-1.738-1.812-2.225-.884-.412-1.25-.686-1.25-1.265 0-.534.397-.99 1.144-.99.594 0 1.067.212 1.356.395l.32-.945c-.38-.23-.96-.427-1.66-.427-1.45 0-2.394.93-2.394 2.12 0 .883.594 1.584 1.814 2.102.914.412 1.25.762 1.25 1.372 0 .64-.442 1.098-1.326 1.098-.61 0-1.25-.26-1.6-.488l-.32.975zm5.938 0c.457.29 1.16.488 1.89.488 1.585 0 2.59-.854 2.59-2.21 0-1.082-.67-1.738-1.812-2.225-.885-.412-1.25-.686-1.25-1.265 0-.534.396-.99 1.143-.99.594 0 1.067.212 1.356.395l.32-.945c-.38-.23-.96-.427-1.66-.427-1.44 0-2.39.93-2.39 2.12 0 .883.6 1.584 1.82 2.102.92.412 1.25.762 1.25 1.372 0 .64-.44 1.098-1.32 1.098-.61 0-1.25-.26-1.6-.488l-.32.975zm11.85-3.14c.03-.152.047-.35.047-.64 0-1.448-.61-3.4-2.74-3.4-1.95 0-3.18 1.678-3.18 3.95 0 2.24 1.24 3.718 3.36 3.718.99 0 1.76-.213 2.2-.427l-.21-.93c-.42.2-.97.35-1.8.35-1.19 0-2.27-.67-2.28-2.62h4.64zm-4.617-.93c.09-.96.61-2.164 1.798-2.164 1.235 0 1.647 1.128 1.63 2.165h-3.428zm6.648 4.42h1.28V38.5c0-.227.03-.456.077-.624.213-.762.838-1.326 1.6-1.326 1.128 0 1.494.96 1.494 2.058v4.405h1.28V38.44c0-2.3-1.34-2.957-2.347-2.957-1.09 0-1.86.61-2.21 1.265h-.04l-.08-1.112h-1.12c.03.61.06 1.173.06 1.966v5.41zm16.043-10.745v4.253h-.03c-.32-.595-1.006-1.037-1.966-1.037-1.6 0-2.988 1.418-2.988 3.918 0 2.31 1.235 3.77 2.866 3.77 1.067 0 1.86-.59 2.21-1.32h.045l.077 1.18h1.128c-.03-.49-.06-1.25-.06-1.86v-8.89h-1.282zm0 7.79c0 .212-.015.395-.06.548-.26 1.02-.976 1.51-1.708 1.51-1.28 0-1.92-1.25-1.92-2.76 0-1.57.686-2.835 1.95-2.835.885 0 1.525.686 1.693 1.51.03.166.045.38.045.547v1.48zm9.13-.535c.03-.152.045-.35.045-.64 0-1.448-.61-3.4-2.744-3.4-1.96 0-3.19 1.678-3.19 3.95 0 2.24 1.23 3.718 3.35 3.718.99 0 1.75-.213 2.19-.427l-.22-.93c-.43.2-.98.35-1.8.35-1.19 0-2.27-.67-2.29-2.62H89zm-4.62-.93c.09-.96.61-2.164 1.798-2.164 1.235 0 1.646 1.128 1.63 2.165H84.4zm6.634 4.42h1.28v-3.977c0-.23.015-.458.046-.64.167-.96.807-1.662 1.692-1.662.152 0 .274 0 .38.03v-1.25c-.106-.014-.198-.03-.335-.03-.823 0-1.585.61-1.89 1.525h-.045l-.06-1.372h-1.13c.03.64.062 1.387.062 2.18v5.197zm13.284-5.898h-3.552v-3.292h3.78V32.74h-5.06v10.273h5.274V41.93h-3.994v-3.75h3.552v-1.066zm1.577-1.478l2.255 3.627-2.362 3.75h1.402l.945-1.662c.244-.44.473-.83.686-1.28h.03c.24.46.45.87.7 1.28l.97 1.67h1.45l-2.33-3.79 2.28-3.58h-1.39l-.92 1.57c-.23.4-.44.8-.67 1.24h-.03c-.22-.42-.43-.8-.67-1.23l-.95-1.57h-1.42zM113.56 46h1.28v-3.902h.03c.366.64 1.083 1.067 1.982 1.067 1.555 0 3.033-1.25 3.033-3.932 0-2.286-1.19-3.75-2.835-3.75-1.006 0-1.8.458-2.302 1.31h-.03l-.076-1.157H113.5c.03.64.06 1.372.06 2.377V46zm1.28-7.362c0-.182.03-.38.076-.548.198-.9.945-1.555 1.738-1.555 1.28 0 1.935 1.265 1.935 2.76 0 1.614-.67 2.834-1.97 2.834-.76 0-1.5-.51-1.72-1.47-.05-.19-.06-.37-.06-.57v-1.46zm12.42.884c.03-.152.045-.35.045-.64 0-1.448-.61-3.4-2.743-3.4-1.95 0-3.186 1.678-3.186 3.95 0 2.24 1.235 3.718 3.353 3.718.99 0 1.75-.213 2.19-.427l-.22-.93c-.43.2-.98.35-1.8.35-1.19 0-2.27-.67-2.29-2.62h4.63zm-4.62-.93c.092-.96.61-2.164 1.8-2.164 1.234 0 1.646 1.128 1.63 2.165h-3.43zm6.634 4.42h1.28v-3.977c0-.23.016-.458.046-.64.168-.96.808-1.662 1.692-1.662.152 0 .274 0 .38.03v-1.25c-.106-.014-.197-.03-.334-.03-.823 0-1.585.61-1.89 1.525h-.046l-.06-1.372h-1.13c.032.64.062 1.387.062 2.18v5.197zm5.66-8.702v1.326h-1.066v.975h1.067v4.1c0 .92.153 1.53.488 1.91.305.35.793.54 1.356.54.48 0 .85-.07 1.09-.16l-.05-.97c-.19.05-.38.08-.69.08-.66 0-.95-.44-.95-1.37v-4.1h1.76v-.97h-1.76V33.9l-1.27.43zm10.106 5.212c.032-.152.047-.35.047-.64 0-1.448-.61-3.4-2.744-3.4-1.95 0-3.185 1.678-3.185 3.95 0 2.24 1.234 3.718 3.353 3.718 1 0 1.76-.213 2.2-.427l-.21-.93c-.42.2-.97.35-1.8.35-1.19 0-2.27-.67-2.28-2.62h4.64zm-4.617-.93c.09-.96.61-2.164 1.798-2.164 1.24 0 1.65 1.128 1.64 2.165h-3.43zm6.647 4.42h1.28V38.5c0-.227.032-.456.077-.624.214-.762.84-1.326 1.6-1.326 1.13 0 1.495.96 1.495 2.058v4.405h1.28V38.44c0-2.3-1.34-2.957-2.347-2.957-1.083 0-1.86.61-2.21 1.265h-.03l-.077-1.112h-1.128c.03.61.06 1.173.06 1.966v5.41zm8.78.153c.534 0 .87-.396.87-.93 0-.563-.35-.944-.87-.944-.503 0-.868.4-.868.95 0 .54.365.93.853.93h.015z" font-size="15.242" letter-spacing=".4"/></g><path d="M3.038.014h307v5h-307zm0 45.986h307v5h-307z" fill="none"/></g><path d="M0 0h3.04v51H0z" opacity=".985" fill="none"/></svg>