<?xml version="1.0" encoding="utf-8"?>
<!-- Generator: Adobe Illustrator 21.1.0, SVG Export Plug-In . SVG Version: 6.00 Build 0)  -->
<svg version="1.1" id="Layer_1" xmlns="http://www.w3.org/2000/svg" xmlns:xlink="http://www.w3.org/1999/xlink" x="0px" y="0px"
	 viewBox="0 0 301.5 67" style="enable-background:new 0 0 301.5 67;" xml:space="preserve">
<style type="text/css">
	.st0{fill:#FFFFFF;}
</style>
<g>
	<polygon class="st0" points="290.3,12.4 290.8,12.4 290.8,8.9 292,8.9 292,8.6 289.1,8.6 289.1,8.9 290.3,8.9 	"/>
	<polygon class="st0" points="293,9.1 293,9.1 294.3,12.4 294.6,12.4 295.9,9.1 296,9.1 296,12.4 296.3,12.4 296.3,8.6 295.8,8.6 
		294.5,11.7 294.5,11.7 293.2,8.6 292.6,8.6 292.6,12.4 293,12.4 	"/>
	<path class="st0" d="M124.5,15.1c-10.4,0-18.8,8.5-18.8,18.8s8.5,18.8,18.8,18.8c10.4,0,18.8-8.5,18.8-18.8S134.9,15.1,124.5,15.1z
		 M124.5,44.1c-5.6,0-10.2-4.6-10.2-10.2s4.6-10.2,10.2-10.2c5.6,0,10.2,4.6,10.2,10.2S130.1,44.1,124.5,44.1z"/>
	<path class="st0" d="M279.3,14.7c-10.4,0-18.8,8.5-18.8,18.8s8.5,18.8,18.8,18.8s18.8-8.5,18.8-18.8S289.7,14.7,279.3,14.7z
		 M279.3,43.8c-5.6,0-10.2-4.6-10.2-10.2s4.6-10.2,10.2-10.2c5.6,0,10.2,4.6,10.2,10.2S284.9,43.8,279.3,43.8z"/>
	<path class="st0" d="M204.1,15.1c-10.4,0-18.8,8.5-18.8,18.8s8.5,18.8,18.8,18.8s18.8-8.5,18.8-18.8S214.5,15.1,204.1,15.1z
		 M204.1,44.1c-5.6,0-10.2-4.6-10.2-10.2s4.6-10.2,10.2-10.2c5.6,0,10.2,4.6,10.2,10.2S209.7,44.1,204.1,44.1z"/>
	<polygon class="st0" points="111.7,15.1 98.5,15.1 86.3,27.3 86.3,15.1 77,15.1 77,52.1 86.3,52.1 86.3,40.3 98.1,52.1 111.4,52.1 
		93.1,33.8 	"/>
	<path class="st0" d="M241.7,15.2L241.7,15.2l-16.5-0.1v37.6h16.5v-0.1c9.6-0.9,17.1-9,17.1-18.8C258.8,24.2,251.3,16,241.7,15.2z
		 M239.9,44.1l-0.4,0h-5V23.7h5.8c5.5,0.2,9.9,4.6,9.9,10.2C250.2,39.5,245.6,44.1,239.9,44.1z"/>
	<polygon class="st0" points="164.3,24.6 155.1,15.7 145.8,15.7 145.8,52.7 155.4,52.7 155.4,29.3 164,37.5 164.3,37.8 164.3,37.8 
		164.3,37.8 173.3,29.1 173.3,52.7 182.8,52.7 182.8,15.7 173.5,15.7 	"/>
	<path class="st0" d="M54.3,12.2L32.9,3.4h0l-21.4,8.8l0,0.1L2.6,33.6L11.4,55l21.4,8.9h0l21.4-8.8l8.9-21.4L54.3,12.2L54.3,12.2z
		 M46.4,47.2l-13.5,5.6h0l-13.5-5.6l-5.6-13.5l5.6-13.4l0-0.1l13.5-5.6h0l13.5,5.6l0,0L52,33.7L46.4,47.2z"/>
	<polygon class="st0" points="32.9,22.5 32.9,22.5 25,25.7 21.7,33.6 24.9,41.5 32.9,44.8 32.9,44.8 40.8,41.5 44.1,33.6 40.8,25.7 
			"/>
</g>
</svg>
